<svg width="494" height="512" viewBox="0 0 494 512" fill="none" xmlns="http://www.w3.org/2000/svg">
<path fill="currentColor" d="M371.3,110.4c-34.98-6.42-51.59,12.76-59.06,27.62-8.5-5.38-17.38-9.64-26.54-12.79,3.39-16.03,8.64-46.12,4.65-63.4C284.74,37.49,260.42.8,248.04,0h0s0,0-.01,0c0,0,0,0-.01,0h0c-12.37.8-36.7,37.49-42.32,61.83-3.98,17.27,1.26,47.32,4.65,63.37-9.67,3.49-18.94,8.26-27.72,14.18-7.02-15.05-23.53-36.08-59.92-29.4C67.62,120.1-9.95,204.13,1.29,226.61c7.87,15.74,86.55-17.7,139.59-45.34-24.67,35.38-39.82,82.85-39.82,135,0,18.88,5.71,41.32,15.26,64.15-20.61,19.77-66.31,67.13-61.07,93.79,6.74,34.29,41.59,34.29,59.02,15.18,11.26-12.35,22.28-40.65,28.67-59.13,28.8,44,67.74,79.96,101.19,81.28l2.71.47h1.08c33.59,0,73.78-35.07,104.11-78.56,6.5,18.44,16.99,44.61,27.7,56.35,17.42,19.11,52.27,19.11,59.02-15.18,5.01-25.48-36.51-69.87-58.19-91,10.85-23.91,17.44-47.47,17.44-66.94,0-48.53-13.72-95.07-38.68-131.8,52.76,26.93,125.82,57.28,133.39,42.15,11.24-22.48-66.33-106.51-121.41-116.63ZM372.71,316.68c0,28.12-18.14,70.78-46.21,108.68-27.16,36.67-57.45,60.57-77.6,61.33l-2.31-.4-.97-.02c-19.95-.36-49.69-24.52-75.76-61.55-26.43-37.55-43.51-80.12-43.51-108.46,0-91.25,50.45-166.19,114.04-172.17l8.13.05c67.31.45,124.18,79.46,124.18,172.53ZM260.69,287.11c18.55-21.92,57.33-57.33-21.36-103.42,0,0,19.74,18.93,14.05,56.21-5.06,33.16-128.15,84.31-24.73,154.01,91.06,37.66,101.74-72.51,59.58-116.35,1.69,88.81-54.52,45.53-27.54,9.55ZM210.48,312.97s.75,45.95,37.85,65.06c-43.84-7.49-51.9-36.02-37.85-65.06Z"/>
</svg>
