<svg width="494" height="512" viewBox="0 0 494 512" fill="none" xmlns="http://www.w3.org/2000/svg">
<path fill="currentColor" d="M371.3,110.4c-34.98-6.43-51.59,12.76-59.06,27.62-8.5-5.38-17.38-9.64-26.54-12.79,3.39-16.04,8.64-46.12,4.65-63.4C284.74,37.49,260.42.8,248.04,0h0s0,0-.01,0c0,0,0,0-.01,0h0c-12.37.8-36.7,37.49-42.32,61.83-3.98,17.27,1.26,47.32,4.65,63.37-9.67,3.48-18.94,8.26-27.72,14.18-7.02-15.05-23.53-36.08-59.92-29.4C67.62,120.1-9.95,204.13,1.29,226.61c7.87,15.74,86.55-17.7,139.59-45.34-24.67,35.38-39.82,82.85-39.82,135,0,18.88,5.71,41.32,15.26,64.15-20.61,19.77-66.31,67.13-61.07,93.79,6.74,34.29,41.59,34.29,59.02,15.18,11.26-12.35,22.28-40.65,28.67-59.13,28.8,44,67.74,79.96,101.19,81.28l2.71.47h1.08c33.59,0,73.78-35.07,104.11-78.56,6.5,18.44,16.99,44.61,27.7,56.35,17.42,19.11,52.27,19.11,59.02-15.18,5.01-25.48-36.51-69.87-58.19-91,10.85-23.91,17.44-47.47,17.44-66.94,0-48.53-13.72-95.07-38.68-131.8,52.76,26.93,125.82,57.28,133.39,42.14,11.24-22.48-66.33-106.51-121.41-116.63ZM240.39,144.09l8.13.05c24.79.17,48.14,11.01,67.78,29.26l-38.81,63.18h-62.67l-37.25-60.65c17.95-18.15,39.49-29.65,62.82-31.85ZM307.9,317.39l-31.55,63.09h-61l-31.55-63.09,31.55-63.09h61l31.55,63.09ZM165.42,189.98l34.33,55.9-29.64,59.28h-43.48c2.05-45.37,16.58-86.02,38.79-115.18ZM126.67,322.87h40.08l33.07,66.13-24.94,42.61c-1.68-2.24-3.35-4.54-5.01-6.89-24.46-34.75-40.88-73.77-43.2-101.85ZM248.9,486.69l-2.31-.4-.97-.02c-15.73-.28-37.55-15.41-58.85-39.93l28.19-48.15h63.16l29.38,50.2c-21.51,23.34-43.07,37.72-58.6,38.3ZM326.5,425.36c-2.25,3.04-4.52,5.95-6.81,8.8l-27.18-46.43,33.8-67.6h46.25c-1.37,28.08-19.12,68.83-46.07,105.22ZM372.22,302.43h-51.52v.97l-28.48-56.96,36.67-59.7c24.13,28.95,40.48,70.15,43.33,115.69Z"/>
</svg>
