<svg width="444" height="512" viewBox="0 0 444 512" fill="none" xmlns="http://www.w3.org/2000/svg">
<path fill="currentColor" d="M392.76,257.67c1.35,177.25-74.99,254.33-169.16,254.33S55.79,413.61,55.79,273.43l53.24,43.97,49.62-64.61,67.06,60.99,65.37-63.69,52.48,62.76,49.2-55.18ZM442.96,204.16c-6.81,13.61-72.51-13.68-119.95-37.9,22.44,33.03,34.78,74.88,34.78,118.52h-22.75c0-41.49-12.58-79.86-32.63-108.07l-25,46.75,11.63,17.24-18.85,12.72-13.1-19.42h-61.69l-13.81,20.71-18.92-12.62,12.23-18.35-26.94-52.01c-21.19,28.3-34.45,68.33-34.45,112.66h-22.75c0-46.89,13.62-89.58,35.81-121.4C78.88,187.86,8.12,217.94,1.04,203.78c-10.11-20.22,59.64-95.78,109.18-104.88,32.72-6.01,47.57,12.9,53.89,26.43,7.9-5.32,16.23-9.62,24.93-12.75-3.05-14.43-7.76-41.46-4.18-56.98C189.91,33.71,211.79.72,222.91,0h0s0,0,.01,0c0,0,0,0,.01,0h0c11.13.72,33,33.71,38.05,55.6,3.59,15.54-1.14,42.6-4.19,57.02,8.23,2.83,16.22,6.66,23.86,11.5,6.72-13.37,21.65-30.62,53.11-24.84,49.53,9.1,119.29,84.66,109.18,104.88ZM286.58,158.09c-18.11-17.71-39.96-28.31-63.21-28.47l-7.31-.05c-18.99,1.79-36.66,10.44-51.81,24.17l29.79,57.51h64.11l28.43-53.16Z"/>
</svg>
