<svg width="636" height="70" viewBox="0 0 636 70" fill="none" xmlns="http://www.w3.org/2000/svg">
<line x1="15.5" y1="30" x2="15.5" y2="40" stroke="black" stroke-width="7" stroke-linecap="round"/>
<line x1="27.5" y1="33" x2="27.5" y2="37" stroke="black" stroke-width="7" stroke-linecap="round"/>
<line x1="39.5" y1="30" x2="39.5" y2="40" stroke="black" stroke-width="7" stroke-linecap="round"/>
<line x1="51.5" y1="25" x2="51.5" y2="45" stroke="black" stroke-width="7" stroke-linecap="round"/>
<line x1="63.5" y1="12" x2="63.5" y2="58" stroke="black" stroke-width="7" stroke-linecap="round"/>
<line x1="75.5" y1="22" x2="75.5" y2="48" stroke="black" stroke-width="7" stroke-linecap="round"/>
<line x1="87.5" y1="20" x2="87.5" y2="50" stroke="black" stroke-width="7" stroke-linecap="round"/>
<line x1="99.5" y1="17.5" x2="99.5" y2="52.5" stroke="black" stroke-width="7" stroke-linecap="round"/>
<line x1="111.5" y1="27" x2="111.5" y2="43" stroke="black" stroke-width="7" stroke-linecap="round"/>
<line x1="123.5" y1="32" x2="123.5" y2="38" stroke="black" stroke-width="7" stroke-linecap="round"/>
<line x1="135.5" y1="27.5" x2="135.5" y2="42.5" stroke="black" stroke-width="7" stroke-linecap="round"/>
<line x1="147.5" y1="34" x2="147.5" y2="36" stroke="black" stroke-width="7" stroke-linecap="round"/>
<line x1="159.5" y1="26.5" x2="159.5" y2="43.5" stroke="black" stroke-width="7" stroke-linecap="round"/>
<line x1="171.5" y1="17.5" x2="171.5" y2="52.5" stroke="black" stroke-width="7" stroke-linecap="round"/>
<line x1="183.5" y1="21.5" x2="183.5" y2="48.5" stroke="black" stroke-width="7" stroke-linecap="round"/>
<line x1="195.5" y1="30.5" x2="195.5" y2="39.5" stroke="black" stroke-width="7" stroke-linecap="round"/>
<line x1="207.5" y1="9" x2="207.5" y2="61" stroke="black" stroke-width="7" stroke-linecap="round"/>
<line x1="219.5" y1="21" x2="219.5" y2="49" stroke="black" stroke-width="7" stroke-linecap="round"/>
<line x1="231.5" y1="29.5" x2="231.5" y2="40.5" stroke="black" stroke-width="7" stroke-linecap="round"/>
<line x1="243.5" y1="24" x2="243.5" y2="46" stroke="black" stroke-width="7" stroke-linecap="round"/>
<line x1="255.5" y1="21.5" x2="255.5" y2="48.5" stroke="black" stroke-width="7" stroke-linecap="round"/>
<line x1="267.5" y1="29.5" x2="267.5" y2="40.5" stroke="black" stroke-width="7" stroke-linecap="round"/>
<line x1="279.5" y1="25.5" x2="279.5" y2="44.5" stroke="black" stroke-width="7" stroke-linecap="round"/>
<line x1="291.5" y1="14.5" x2="291.5" y2="55.5" stroke="black" stroke-width="7" stroke-linecap="round"/>
<line x1="303.5" y1="29" x2="303.5" y2="41" stroke="black" stroke-width="7" stroke-linecap="round"/>
<line x1="315.5" y1="30" x2="315.5" y2="40" stroke="black" stroke-width="7" stroke-linecap="round"/>
<line x1="327.5" y1="22.5" x2="327.5" y2="47.5" stroke="black" stroke-width="7" stroke-linecap="round"/>
<line x1="339.5" y1="25.5" x2="339.5" y2="44.5" stroke="black" stroke-width="7" stroke-linecap="round"/>
<line x1="351.5" y1="16" x2="351.5" y2="54" stroke="black" stroke-width="7" stroke-linecap="round"/>
<line x1="363.5" y1="19.5" x2="363.5" y2="50.5" stroke="black" stroke-width="7" stroke-linecap="round"/>
<line x1="375.5" y1="10.5" x2="375.5" y2="59.5" stroke="black" stroke-width="7" stroke-linecap="round"/>
<line x1="387.5" y1="20" x2="387.5" y2="50" stroke="black" stroke-width="7" stroke-linecap="round"/>
<line x1="399.5" y1="11" x2="399.5" y2="59" stroke="black" stroke-width="7" stroke-linecap="round"/>
<line x1="411.5" y1="3.5" x2="411.5" y2="66.5" stroke="black" stroke-width="7" stroke-linecap="round"/>
<line x1="423.5" y1="13.5" x2="423.5" y2="56.5" stroke="black" stroke-width="7" stroke-linecap="round"/>
<line x1="435.5" y1="8.5" x2="435.5" y2="61.5" stroke="black" stroke-width="7" stroke-linecap="round"/>
<line x1="447.5" y1="14" x2="447.5" y2="56" stroke="black" stroke-width="7" stroke-linecap="round"/>
<line x1="459.5" y1="11" x2="459.5" y2="59" stroke="black" stroke-width="7" stroke-linecap="round"/>
<line x1="471.5" y1="18" x2="471.5" y2="52" stroke="black" stroke-width="7" stroke-linecap="round"/>
<line x1="483.5" y1="21.5" x2="483.5" y2="48.5" stroke="black" stroke-width="7" stroke-linecap="round"/>
<line x1="495.5" y1="27" x2="495.5" y2="43" stroke="black" stroke-width="7" stroke-linecap="round"/>
<line x1="507.5" y1="8.5" x2="507.5" y2="61.5" stroke="black" stroke-width="7" stroke-linecap="round"/>
<line x1="519.5" y1="29.5" x2="519.5" y2="40.5" stroke="black" stroke-width="7" stroke-linecap="round"/>
<line x1="531.5" y1="23" x2="531.5" y2="47" stroke="black" stroke-width="7" stroke-linecap="round"/>
<line x1="543.5" y1="19" x2="543.5" y2="51" stroke="black" stroke-width="7" stroke-linecap="round"/>
<line x1="555.5" y1="27" x2="555.5" y2="43" stroke="black" stroke-width="7" stroke-linecap="round"/>
<line x1="567.5" y1="32.5" x2="567.5" y2="37.5" stroke="black" stroke-width="7" stroke-linecap="round"/>
<line x1="579.5" y1="29.5" x2="579.5" y2="40.5" stroke="black" stroke-width="7" stroke-linecap="round"/>
<line x1="591.5" y1="32.5" x2="591.5" y2="37.5" stroke="black" stroke-width="7" stroke-linecap="round"/>
<line x1="603.5" y1="27" x2="603.5" y2="43" stroke="black" stroke-width="7" stroke-linecap="round"/>
<line x1="615.5" y1="16" x2="615.5" y2="54" stroke="black" stroke-width="7" stroke-linecap="round"/>
<line x1="627.5" y1="27.5" x2="627.5" y2="42.5" stroke="black" stroke-width="7" stroke-linecap="round"/>
</svg>
