<svg width="887" height="70" viewBox="0 0 887 70" fill="none" xmlns="http://www.w3.org/2000/svg">
<rect x="12" y="10" width="239" height="50" fill="#D9D9D9"/>
<line x1="266.5" y1="30" x2="266.5" y2="40" stroke="black" stroke-width="7" stroke-linecap="round"/>
<line x1="278.5" y1="33" x2="278.5" y2="37" stroke="black" stroke-width="7" stroke-linecap="round"/>
<line x1="290.5" y1="30" x2="290.5" y2="40" stroke="black" stroke-width="7" stroke-linecap="round"/>
<line x1="302.5" y1="25" x2="302.5" y2="45" stroke="black" stroke-width="7" stroke-linecap="round"/>
<line x1="314.5" y1="12" x2="314.5" y2="58" stroke="black" stroke-width="7" stroke-linecap="round"/>
<line x1="326.5" y1="22" x2="326.5" y2="48" stroke="black" stroke-width="7" stroke-linecap="round"/>
<line x1="338.5" y1="20" x2="338.5" y2="50" stroke="black" stroke-width="7" stroke-linecap="round"/>
<line x1="350.5" y1="17.5" x2="350.5" y2="52.5" stroke="black" stroke-width="7" stroke-linecap="round"/>
<line x1="362.5" y1="27" x2="362.5" y2="43" stroke="black" stroke-width="7" stroke-linecap="round"/>
<line x1="374.5" y1="32" x2="374.5" y2="38" stroke="black" stroke-width="7" stroke-linecap="round"/>
<line x1="386.5" y1="27.5" x2="386.5" y2="42.5" stroke="black" stroke-width="7" stroke-linecap="round"/>
<line x1="398.5" y1="34" x2="398.5" y2="36" stroke="black" stroke-width="7" stroke-linecap="round"/>
<line x1="410.5" y1="26.5" x2="410.5" y2="43.5" stroke="black" stroke-width="7" stroke-linecap="round"/>
<line x1="422.5" y1="17.5" x2="422.5" y2="52.5" stroke="black" stroke-width="7" stroke-linecap="round"/>
<line x1="434.5" y1="21.5" x2="434.5" y2="48.5" stroke="black" stroke-width="7" stroke-linecap="round"/>
<line x1="446.5" y1="30.5" x2="446.5" y2="39.5" stroke="black" stroke-width="7" stroke-linecap="round"/>
<line x1="458.5" y1="9" x2="458.5" y2="61" stroke="black" stroke-width="7" stroke-linecap="round"/>
<line x1="470.5" y1="21" x2="470.5" y2="49" stroke="black" stroke-width="7" stroke-linecap="round"/>
<line x1="482.5" y1="29.5" x2="482.5" y2="40.5" stroke="black" stroke-width="7" stroke-linecap="round"/>
<line x1="494.5" y1="24" x2="494.5" y2="46" stroke="black" stroke-width="7" stroke-linecap="round"/>
<line x1="506.5" y1="21.5" x2="506.5" y2="48.5" stroke="black" stroke-width="7" stroke-linecap="round"/>
<line x1="518.5" y1="29.5" x2="518.5" y2="40.5" stroke="black" stroke-width="7" stroke-linecap="round"/>
<line x1="530.5" y1="25.5" x2="530.5" y2="44.5" stroke="black" stroke-width="7" stroke-linecap="round"/>
<line x1="542.5" y1="14.5" x2="542.5" y2="55.5" stroke="black" stroke-width="7" stroke-linecap="round"/>
<line x1="554.5" y1="29" x2="554.5" y2="41" stroke="black" stroke-width="7" stroke-linecap="round"/>
<line x1="566.5" y1="30" x2="566.5" y2="40" stroke="black" stroke-width="7" stroke-linecap="round"/>
<line x1="578.5" y1="22.5" x2="578.5" y2="47.5" stroke="black" stroke-width="7" stroke-linecap="round"/>
<line x1="590.5" y1="25.5" x2="590.5" y2="44.5" stroke="black" stroke-width="7" stroke-linecap="round"/>
<line x1="602.5" y1="16" x2="602.5" y2="54" stroke="black" stroke-width="7" stroke-linecap="round"/>
<line x1="614.5" y1="19.5" x2="614.5" y2="50.5" stroke="black" stroke-width="7" stroke-linecap="round"/>
<line x1="626.5" y1="10.5" x2="626.5" y2="59.5" stroke="black" stroke-width="7" stroke-linecap="round"/>
<line x1="638.5" y1="20" x2="638.5" y2="50" stroke="black" stroke-width="7" stroke-linecap="round"/>
<line x1="650.5" y1="11" x2="650.5" y2="59" stroke="black" stroke-width="7" stroke-linecap="round"/>
<line x1="662.5" y1="3.5" x2="662.5" y2="66.5" stroke="black" stroke-width="7" stroke-linecap="round"/>
<line x1="674.5" y1="13.5" x2="674.5" y2="56.5" stroke="black" stroke-width="7" stroke-linecap="round"/>
<line x1="686.5" y1="8.5" x2="686.5" y2="61.5" stroke="black" stroke-width="7" stroke-linecap="round"/>
<line x1="698.5" y1="14" x2="698.5" y2="56" stroke="black" stroke-width="7" stroke-linecap="round"/>
<line x1="710.5" y1="11" x2="710.5" y2="59" stroke="black" stroke-width="7" stroke-linecap="round"/>
<line x1="722.5" y1="18" x2="722.5" y2="52" stroke="black" stroke-width="7" stroke-linecap="round"/>
<line x1="734.5" y1="21.5" x2="734.5" y2="48.5" stroke="black" stroke-width="7" stroke-linecap="round"/>
<line x1="746.5" y1="27" x2="746.5" y2="43" stroke="black" stroke-width="7" stroke-linecap="round"/>
<line x1="758.5" y1="8.5" x2="758.5" y2="61.5" stroke="black" stroke-width="7" stroke-linecap="round"/>
<line x1="770.5" y1="29.5" x2="770.5" y2="40.5" stroke="black" stroke-width="7" stroke-linecap="round"/>
<line x1="782.5" y1="23" x2="782.5" y2="47" stroke="black" stroke-width="7" stroke-linecap="round"/>
<line x1="794.5" y1="19" x2="794.5" y2="51" stroke="black" stroke-width="7" stroke-linecap="round"/>
<line x1="806.5" y1="27" x2="806.5" y2="43" stroke="black" stroke-width="7" stroke-linecap="round"/>
<line x1="818.5" y1="32.5" x2="818.5" y2="37.5" stroke="black" stroke-width="7" stroke-linecap="round"/>
<line x1="830.5" y1="29.5" x2="830.5" y2="40.5" stroke="black" stroke-width="7" stroke-linecap="round"/>
<line x1="842.5" y1="32.5" x2="842.5" y2="37.5" stroke="black" stroke-width="7" stroke-linecap="round"/>
<line x1="854.5" y1="27" x2="854.5" y2="43" stroke="black" stroke-width="7" stroke-linecap="round"/>
<line x1="866.5" y1="16" x2="866.5" y2="54" stroke="black" stroke-width="7" stroke-linecap="round"/>
<line x1="878.5" y1="27.5" x2="878.5" y2="42.5" stroke="black" stroke-width="7" stroke-linecap="round"/>
</svg>
